<svg width="40" height="41" viewBox="0 0 40 41" fill="none" xmlns="http://www.w3.org/2000/svg">
<mask id="mask0_97_187" style="mask-type:alpha" maskUnits="userSpaceOnUse" x="0" y="0" width="40" height="41">
<rect x="0.5" y="0.5" width="38.7941" height="40" rx="19.3971" fill="#D9D9D9" stroke="white"/>
</mask>
<g mask="url(#mask0_97_187)">
<rect width="39.7941" height="41" rx="19.8971" fill="black"/>
<path d="M27.0102 35.323C27.3037 36.5278 31.4827 37.6213 33.5881 38.6428L38.5492 41.7644C39.3982 42.2987 39.0197 43.6108 38.0166 43.6108H7.92433C7.00785 43.6108 6.68417 42.6235 7.45831 42.1329C10.7971 40.0172 16.609 36.6766 17.0956 36.0891C17.6383 35.4338 18.0021 33.6108 17.7651 32.5977C17.6971 32.3071 17.4194 32.1447 17.1227 32.1134L12.961 31.6749C12.4836 31.6246 12.1087 31.2451 12.1176 30.7651C12.1864 27.0566 13.9918 19.0265 13.6254 17.8942C13.1297 16.3619 9.56043 15.5958 10.2544 13.4891C10.5074 12.721 10.9933 11.9699 11.5533 11.2822C12.1771 10.5162 15.1154 11.2395 16.0049 11.669C18.3844 12.8182 20.07 12.0526 23.9367 12.5314C27.8034 13.0103 29.0923 17.4153 29.0923 20.0009C29.0923 21.8824 27.2453 28.981 27.0102 30.3433C26.7128 32.067 26.6137 33.695 27.0102 35.323Z" stroke="white" stroke-width="2"/>
</g>
</svg>
