<svg width="91" height="101" viewBox="0 0 91 101" fill="none" xmlns="http://www.w3.org/2000/svg">
<path d="M24.6957 58.7358L34.1522 60.566V95.3396L45.5 99L56.8478 95.3396V60.566L66.3043 58.7358M24.6957 58.7358V84.3585L13.3478 88.0189L2 84.3585V9.32075L43.6087 2L56.8478 3.83019V36.7736L89 42.2642M24.6957 58.7358L13.3478 56.9057V78.8679M66.3043 58.7358V84.3585L77.6522 88.0189L89 84.3585V42.2642M66.3043 58.7358L77.6522 56.9057V78.8679M89 42.2642L45.5 49.5849M47.3913 38.6038L15.2391 44.0943M15.2391 44.0943V16.6415L47.3913 11.1509M15.2391 44.0943L45.5 49.5849M45.5 49.5849V89.8491" stroke="black" stroke-width="2.5" stroke-linecap="round" stroke-linejoin="round"/>
</svg>
